<svg xmlns="http://www.w3.org/2000/svg" width="124" height="45" fill="none"><script/><path fill="#B72025" d="M34.62 20.17h-6.16L25 23.67l-3.51-3.5H1.5a2.23 2.23 0 0 1-1.5-.59v11.35c.41.373.945.58 1.5.58h6.38L11.39 35l3.5-3.51h19.73a2.26 2.26 0 0 0 2.26-2.26V17.9a2.27 2.27 0 0 1-2.26 2.27Z"/><path fill="#EC1F2B" d="M0 0v19.58a2.23 2.23 0 0 0 1.5.59h20l3.5 3.5 3.5-3.5h6.16a2.27 2.27 0 0 0 2.26-2.27V0H0Z"/><path fill="#8A171A" d="M34.62 31.51H14.89L11.39 35l-3.51-3.49H1.5a2.23 2.23 0 0 1-1.5-.58v7.62a2.26 2.26 0 0 0 2.26 2.26h12.67l3.51 3.51L22 40.81h12.62a2.26 2.26 0 0 0 2.26-2.26v-9.3a2.26 2.26 0 0 1-2.26 2.26Z"/><path fill="#6C0D0E" d="M34.62 31.51H14.89L11.39 35l-3.51-3.49H1.5a2.23 2.23 0 0 1-1.5-.58v.68c.41.373.945.58 1.5.58h6.38l3.51 3.51 3.5-3.51h19.73a2.26 2.26 0 0 0 2.26-2.26v-.68a2.26 2.26 0 0 1-2.26 2.26Z"/><path fill="#861619" d="M34.62 20.17h-6.16L25 23.67l-3.51-3.5H1.5a2.23 2.23 0 0 1-1.5-.59v.74a2.23 2.23 0 0 0 1.5.59h20l3.5 3.51 3.5-3.51h6.16a2.26 2.26 0 0 0 2.26-2.26v-.75a2.272 2.272 0 0 1-2.3 2.27Z"/><path fill="#000" d="M46.91 2.61h3.63V7H51v2h-.89V7.87h-3.3V9h-.89V7h.45a4.82 4.82 0 0 0 .43-1.57c.08-.75.117-1.505.11-2.26v-.56Zm1 .88A10.22 10.22 0 0 1 47.48 7h2V3.49h-1.57ZM51.72 7.87V2.61h3.9v.89h-2.84v1.17h2.65v.88h-2.65V7h2.95v.88l-4.01-.01ZM56.64 2.61h4.19v5.26h-1.06V3.49H57.7v4.38h-1.06V2.61ZM66.66 7.87H65.5L65 6.68h-2.1l-.43 1.19h-1.09l2-5.26h1.12l2.16 5.26Zm-2-2.08L64 3.84l-.71 2 1.37-.05ZM67.22 7.87V2.61h1.71c.422-.021.844.006 1.26.08.323.066.61.247.81.51.211.29.32.642.31 1 .01.28-.053.56-.18.81a1.35 1.35 0 0 1-.45.52 1.43 1.43 0 0 1-.55.25 6 6 0 0 1-1.1.08h-.69v2l-1.12.01Zm1.07-4.37V5h.58a2.94 2.94 0 0 0 .84-.08.7.7 0 0 0 .45-.67.632.632 0 0 0-.16-.48.74.74 0 0 0-.42-.24 6.28 6.28 0 0 0-.77 0l-.52-.03ZM73.22 7.87V3.5h-1.56v-.89h4.18v.89h-1.56v4.37h-1.06ZM80.81 7.87h-1.16l-.46-1.19h-2.1l-.43 1.19h-1.13l2-5.26h1.17l2.11 5.26Zm-2-2.08-.72-1.95-.71 2 1.43-.05ZM81.36 7.87V2.61H83l1 3.59.94-3.59h1.6v5.26h-1V3.73l-1 4.14h-1l-1-4.14v4.14h-1.18ZM87.5 7.87V2.61h3.91v.89h-2.85v1.17h2.65v.88h-2.65V7h3v.88l-4.06-.01ZM92.41 7.87V2.61h1.06v2.07h2.09V2.61h1.06v5.26h-1.06v-2.3h-2.09v2.3h-1.06ZM98.9 7.87V3.5h-1.56v-.89h4.19v.89H100v4.37h-1.1ZM46.5 12.23h1v3.5l2.13-3.5h1.06v5.26h-1v-3.43l-2.13 3.43H46.5v-5.26ZM51.77 17.49v-5.26h1.06v2.07h2.09v-2.07H56v5.26h-1.08v-2.3h-2.09v2.3h-1.06ZM60.2 16.88v.61h-1v-.61a2.46 2.46 0 0 1-1.78-.62 2.13 2.13 0 0 1-.52-1.45 2 2 0 0 1 .55-1.46 2.49 2.49 0 0 1 1.75-.6v-.52h1v.52a2.46 2.46 0 0 1 1.78.62 2 2 0 0 1 .52 1.45 2 2 0 0 1-.5 1.44 2.46 2.46 0 0 1-1.8.62Zm-1-.89v-2.35a1.33 1.33 0 0 0-1 .3 1.23 1.23 0 0 0-.3.91c-.01.76.42 1.15 1.26 1.15l.04-.01Zm1 0a1.6 1.6 0 0 0 .72-.14.93.93 0 0 0 .43-.37 1.6 1.6 0 0 0 .12-.7c0-.76-.42-1.14-1.27-1.14v2.35ZM63.14 14.89c-.013-.462.07-.921.24-1.35.123-.265.289-.508.49-.72.194-.2.425-.359.68-.47a2.9 2.9 0 0 1 1.14-.21 2.49 2.49 0 0 1 1.86.72 2.75 2.75 0 0 1 .7 2 2.75 2.75 0 0 1-.69 2 2.79 2.79 0 0 1-3.73 0 2.74 2.74 0 0 1-.69-1.97Zm1.1 0a1.93 1.93 0 0 0 .41 1.35 1.41 1.41 0 0 0 2.09 0 2 2 0 0 0 .41-1.38 2 2 0 0 0-.4-1.35 1.47 1.47 0 0 0-2.11 0 2 2 0 0 0-.4 1.35v.03ZM69.08 17.49v-5.26h1.7c.425-.015.85.011 1.27.08.302.083.569.262.76.51.204.293.309.643.3 1a1.8 1.8 0 0 1-.17.81 1.44 1.44 0 0 1-.45.52 1.5 1.5 0 0 1-.55.25c-.367.06-.738.087-1.11.08h-.69v2l-1.06.01Zm1.06-4.37v1.49h.58c.282.02.566-.008.84-.08a.72.72 0 0 0 .29-1.14.73.73 0 0 0-.43-.23 4.286 4.286 0 0 0-.77 0l-.51-.04ZM73.87 17.49v-5.26h1.59l1 3.59.94-3.59H79v5.26h-1v-4.14l-1 4.14h-1l-1-4.14v4.14h-1.13ZM84.76 17.49H83.6l-.45-1.19H81l-.43 1.19h-1.09l2-5.26h1.12l2.16 5.26Zm-2-2.08-.72-1.95-.71 1.95h1.43ZM85.34 12.23h1.07v4.38h2.06v-4.38h1.06v4.38H90v2h-.88v-1.12h-3.78v-5.26ZM90.71 12.23h1v3.5l2.13-3.5h1.06v5.26h-1v-3.43l-2.12 3.43h-1.07v-5.26ZM95.77 14.89a3.4 3.4 0 0 1 .23-1.35c.12-.267.285-.51.49-.72a2 2 0 0 1 .68-.47 2.88 2.88 0 0 1 1.13-.21 2.488 2.488 0 0 1 1.87.72 2.79 2.79 0 0 1 .7 2 2.76 2.76 0 0 1-.7 2 2.78 2.78 0 0 1-3.72 0 2.74 2.74 0 0 1-.68-1.97Zm1.09 0c-.036.487.114.97.42 1.35a1.331 1.331 0 0 0 1 .47 1.349 1.349 0 0 0 1-.46 2 2 0 0 0 .41-1.38 2 2 0 0 0-.4-1.35 1.359 1.359 0 0 0-1-.44 1.34 1.34 0 0 0-1.06.45 2 2 0 0 0-.37 1.33v.03ZM101.71 17.49v-5.26h1.06v2.07h2.08v-2.07h1.07v5.26h-1.07v-2.3h-2.08v2.3h-1.06ZM107 17.49v-5.26h1.06v2.07h2.09v-2.07h1.06v5.26h-1.06v-2.3h-2.09v2.3H107ZM112.36 12.23h1.06v2.1h1.42c.341-.014.681.04 1 .16.274.105.509.294.67.54.182.268.276.586.27.91a1.53 1.53 0 0 1-.9 1.43 3.255 3.255 0 0 1-1 .12h-2.48l-.04-5.26Zm1.06 4.38h1c.231.007.462-.01.69-.05a.632.632 0 0 0 .35-.22.6.6 0 0 0 .15-.42.612.612 0 0 0-.25-.53 1.751 1.751 0 0 0-.9-.17h-1.08l.04 1.39Zm3.94-4.38h1.07v5.26h-1.07v-5.26ZM119 17.49l1.8-2.74-1.63-2.52h1.25l1 1.69 1-1.69h1.23l-1.64 2.56 1.8 2.7h-1.28l-1.17-1.82-1.17 1.82H119ZM47.67 27.12v-4.38H46.1v-.89h4.19v.89h-1.56v4.38h-1.06ZM51 27.12v-5.27h3.91v.89H52v1.17h2.64v.89H52v1.43h3v.89h-4ZM55.34 27.12l1.8-2.75-1.63-2.52h1.25l1.05 1.69 1-1.69h1.23l-1.64 2.56 1.8 2.71H59l-1.17-1.83-1.17 1.83h-1.32ZM60.79 27.12v-5.27h1.06v2.07h2.09v-2.07H65v5.27h-1.06v-2.31h-2.09v2.31h-1.06ZM65.88 24.52a3.33 3.33 0 0 1 .24-1.35c.123-.268.289-.515.49-.73.194-.2.425-.359.68-.47a2.9 2.9 0 0 1 1.14-.21 2.49 2.49 0 0 1 1.86.72 2.75 2.75 0 0 1 .7 2 2.78 2.78 0 0 1-.69 2 2.78 2.78 0 0 1-3.73 0 2.73 2.73 0 0 1-.69-1.96Zm1.1 0a2 2 0 0 0 .41 1.36 1.37 1.37 0 0 0 1 .46 1.349 1.349 0 0 0 1-.46 2 2 0 0 0 .41-1.37 1.93 1.93 0 0 0-.4-1.35 1.32 1.32 0 0 0-1-.45 1.35 1.35 0 0 0-1.06.45 2 2 0 0 0-.34 1.32l-.02.04ZM72 21.85h3.7v5.27h-1.06v-4.38h-1.59V25c.013.447-.004.895-.05 1.34a.93.93 0 0 1-.32.59 1.12 1.12 0 0 1-.78.22h-.68v-.82h.24a.8.8 0 0 0 .45-.09c.08-.06.12-.2.12-.44v-3.95H72ZM76.58 24.52a3.33 3.33 0 0 1 .24-1.35c.12-.27.285-.517.49-.73.2-.19.434-.34.69-.44a2.9 2.9 0 0 1 1.14-.21 2.49 2.49 0 0 1 1.86.72 2.79 2.79 0 0 1 .7 2 2.74 2.74 0 0 1-.7 2 2.451 2.451 0 0 1-1.85.72 2.49 2.49 0 0 1-1.87-.72 2.73 2.73 0 0 1-.7-1.99Zm1.1 0a2 2 0 0 0 .41 1.36 1.422 1.422 0 0 0 2.09 0 2 2 0 0 0 .41-1.37 1.93 1.93 0 0 0-.4-1.35 1.321 1.321 0 0 0-1-.45 1.35 1.35 0 0 0-1.06.45 2 2 0 0 0-.45 1.32v.04ZM82.57 21.85h3.57v.88h-2.51v4.39h-1.06v-5.27ZM86.7 21.85h1v3.51l2.13-3.51h1.06v5.27h-1v-3.44l-2.13 3.44H86.7v-5.27ZM92 21.85h1v3.51l2.14-3.51h1v5.27h-1v-3.44l-2.13 3.44H92v-5.27Zm2.73-1.31h.49a1.15 1.15 0 0 1-.34.77 1.23 1.23 0 0 1-1.56 0 1.15 1.15 0 0 1-.34-.77h.49a.6.6 0 0 0 .18.39.71.71 0 0 0 .45.13.75.75 0 0 0 .45-.13.6.6 0 0 0 .17-.39h.01Z"/><path fill="#6F6F6F" d="M49.84 34.79h-3.47v5.22h.9v-4.39h2.57v-.83ZM53.25 35a2.54 2.54 0 0 0-1.31-.34 2.369 2.369 0 0 0-1.8.74 2.81 2.81 0 0 0-.7 2c-.002.45.097.894.29 1.3.193.413.502.76.89 1a2.47 2.47 0 0 0 1.32.36c.443 0 .88-.11 1.27-.32.4-.234.72-.582.92-1a3.27 3.27 0 0 0 0-2.8 2.28 2.28 0 0 0-.88-.94Zm.27 2.36a2.07 2.07 0 0 1-.44 1.41 1.5 1.5 0 0 1-1.14.48 1.44 1.44 0 0 1-1.13-.48 1.89 1.89 0 0 1-.45-1.34 2.06 2.06 0 0 1 .46-1.43 1.582 1.582 0 0 1 1.18-.49c.29-.007.576.073.82.23.249.154.444.381.56.65.117.323.164.667.14 1.01v-.04ZM58.15 35.09a1.49 1.49 0 0 0-.66-.25 4.002 4.002 0 0 0-.78-.05h-2V40h.9v-2h1.16a2.09 2.09 0 0 0 1.55-.48 1.67 1.67 0 0 0 .43-1.16 1.6 1.6 0 0 0-.16-.73 1.3 1.3 0 0 0-.44-.54ZM57.61 37a1.27 1.27 0 0 1-.83.21h-1.17v-1.59h1.15c.196-.023.394-.023.59 0a.65.65 0 0 1 .35.24.79.79 0 0 1 .13.47.75.75 0 0 1-.22.67ZM63.9 37.41a3.09 3.09 0 0 0-.3-1.41 2.41 2.41 0 0 0-.89-1 2.54 2.54 0 0 0-1.31-.34 2.409 2.409 0 0 0-1.81.74 2.85 2.85 0 0 0-.7 2c-.003.45.1.896.3 1.3.193.413.502.76.89 1a2.44 2.44 0 0 0 1.32.36c.443 0 .88-.11 1.27-.32.4-.23.718-.58.91-1 .204-.414.313-.868.32-1.33Zm-.92 0a2 2 0 0 1-.45 1.41 1.481 1.481 0 0 1-1.14.48 1.432 1.432 0 0 1-1.12-.48 1.85 1.85 0 0 1-.46-1.34 2.06 2.06 0 0 1 .47-1.48 1.548 1.548 0 0 1 1.12-.44 1.46 1.46 0 0 1 .83.23c.246.157.441.383.56.65.134.303.205.63.21.96l-.02.01Z"/><path fill="#6F6F6F" d="M67.74 34.79h-3.28v.84a7.62 7.62 0 0 1-.55 3.55h-.44v2h.83V40h3.06v1.17h.83v-2h-.45v-4.38Zm-.9.83v3.56h-2a5.71 5.71 0 0 0 .38-1.68c.07-.58.11-1.165.12-1.75v-.13h1.5ZM70.4 34.79l-2 5.22h1l.55-1.51h1.91l.54 1.5h1l-2.14-5.22-.86.01Zm-.22 2.94.48-1.31c.072-.176.132-.356.18-.54.06.19.13.4.22.63l.46 1.22h-1.34ZM78.16 38.34c-.06.16-.11.31-.15.44l-.13-.38-1.2-3.61h-1.2V40h.87v-3.62L77.59 40h.77l1.24-3.58V40h.87v-5.21h-1.09l-1.22 3.55ZM84.81 35a2.47 2.47 0 0 0-1.3-.34 2.379 2.379 0 0 0-1.81.74 2.81 2.81 0 0 0-.7 2c-.003.45.1.896.3 1.3.19.412.495.76.88 1a2.47 2.47 0 0 0 1.32.36c.443 0 .88-.11 1.27-.32.402-.23.724-.58.92-1 .2-.415.306-.87.31-1.33a3 3 0 0 0-.3-1.41 2.28 2.28 0 0 0-.89-1Zm.28 2.36a2 2 0 0 1-.45 1.41 1.48 1.48 0 0 1-1.14.48 1.44 1.44 0 0 1-1.13-.48 1.89 1.89 0 0 1-.45-1.34 2.06 2.06 0 0 1 .47-1.43 1.539 1.539 0 0 1 1.12-.44 1.51 1.51 0 0 1 .83.23c.246.155.438.382.55.65.13.303.198.63.2.96v-.04ZM90.46 38.12A1.45 1.45 0 0 1 90 39c-.24.2-.547.303-.86.29a1.58 1.58 0 0 1-.79-.21 1.31 1.31 0 0 1-.52-.65 3.09 3.09 0 0 1 0-2 1.37 1.37 0 0 1 .5-.68 1.48 1.48 0 0 1 .89-.25c.27-.013.538.064.76.22.223.191.384.446.46.73v.11l.88-.21v-.12a2.1 2.1 0 0 0-.75-1.13 2.18 2.18 0 0 0-1.34-.41 2.59 2.59 0 0 0-1.26.32A2.13 2.13 0 0 0 87 36a3 3 0 0 0-.31 1.41c.016.463.121.918.31 1.34.168.408.453.756.82 1 .413.247.89.368 1.37.35a2.2 2.2 0 0 0 1.4-.45c.4-.338.678-.798.79-1.31v-.12l-.9-.22-.02.12ZM93.5 37.33l.22-.16c.2-.25.353-.535.45-.84.075-.223.187-.433.33-.62a.54.54 0 0 1 .39-.11h.38v-.78h-.52a1.12 1.12 0 0 0-.6.16 1.069 1.069 0 0 0-.43.38 4.623 4.623 0 0 0-.35.71 2.9 2.9 0 0 1-.44.8.76.76 0 0 1-.44.14v-2.22h-.9V40h.9v-2.31a.63.63 0 0 1 .4.17c.216.22.401.47.55.74l.87 1.4h1.11l-1.14-1.84a2.38 2.38 0 0 0-.78-.83ZM99.39 37.21c.14-.094.26-.217.35-.36.126-.2.192-.433.19-.67a1.34 1.34 0 0 0-.81-1.18 2.368 2.368 0 0 0-1-.16h-2V40h2c.279.002.557-.025.83-.08a1.61 1.61 0 0 0 .59-.27 1.3 1.3 0 0 0 .4-.51c.109-.217.164-.457.16-.7.008-.3-.088-.592-.27-.83a1.381 1.381 0 0 0-.44-.4Zm-1.2 2h-1.12v-1.5h1c.233-.008.465.02.69.08a.61.61 0 0 1 .34.24.74.74 0 0 1 .12.42.69.69 0 0 1-.09.36.52.52 0 0 1-.13.19.76.76 0 0 1-.33.12 2.937 2.937 0 0 1-.48.06v.03Zm.75-2.56a.57.57 0 0 1-.32.21 2.702 2.702 0 0 1-.6.05h-1v-1.29h.87c.245-.01.49.01.73.06a.48.48 0 0 1 .27.21c.07.11.105.24.1.37a.57.57 0 0 1-.05.36v.03ZM105.78 34.79h-.9v5.23h.9v-5.23ZM102.5 36.92h-1.07v-2.13h-.9V40h2a2 2 0 0 0 1.56-.47 1.63 1.63 0 0 0 0-2.15 2.108 2.108 0 0 0-1.59-.46Zm-1.07.8h.76c.291-.01.583.01.87.06a.579.579 0 0 1 .37.23c.103.123.156.28.15.44a.673.673 0 0 1-.24.58 1.439 1.439 0 0 1-.83.18h-1.08v-1.49Z"/><script/></svg>