<svg xmlns="http://www.w3.org/2000/svg" width="167" height="55" fill="none"><script/><g fill="#ED2830" clip-path="url(#a)"><path d="M68.006 8.373h.88v3.368H67.03v-1.525h-3.615v1.531H61.56V8.373h.392c.24-.197.46-.568.66-1.113a5.956 5.956 0 0 0 .322-1.949l.039-2.245h5.04l-.007 5.307Zm-1.856 0v-3.47H64.76l-.01.408a7.039 7.039 0 0 1-.273 1.965c-.169.541-.362.906-.577 1.097h2.251ZM75.184 10.216h-5.322v-7.15h5.225v1.735h-3.37v1h2.589v1.633h-2.589v1.04h3.467v1.742ZM78.31 10.216h-1.856v-7.15h6.103v7.15H80.7V4.903H78.31v5.313ZM85.343 10.216H83.39l2.57-7.143h2.089l2.565 7.143h-1.969l-.463-1.378h-2.379l-.459 1.378Zm1.632-5.307-.704 2.347h1.446l-.704-2.347h-.038ZM91.448 10.216v-7.15h3.077c.459-.01.912.102 1.32.323.371.206.682.515.898.893.21.391.321.833.321 1.281 0 .45-.11.89-.321 1.282a2.367 2.367 0 0 1-.899.893c-.407.221-.86.332-1.319.323h-1.222v2.155h-1.855Zm2.98-3.877a.744.744 0 0 0 .552-.23.748.748 0 0 0 0-1.073.771.771 0 0 0-.552-.229h-1.124V6.34h1.124ZM101.265 10.216H99.41V4.903h-1.905V3.066h5.664v1.837h-1.904v5.313ZM104.879 10.216h-1.954l2.57-7.143h2.089l2.569 7.143h-1.973l-.463-1.378h-2.379l-.459 1.378Zm1.631-5.307-.703 2.347h1.446l-.704-2.347h-.039ZM112.839 10.216h-1.855v-7.15h1.681l2.089 2.746h.02l2.09-2.746h1.641v7.15h-1.855V6.032h-.039l-1.867 2.449-1.864-2.456h-.039l-.002 4.19ZM125.391 10.216h-5.324v-7.15h5.226v1.735h-3.369v1h2.588v1.633h-2.588v1.04h3.467v1.742ZM128.516 10.216h-1.856v-7.15h1.856v2.602h2.491V3.066h1.855v7.15h-1.855v-2.71h-2.491v2.71ZM137.6 10.216h-1.855V4.903h-1.904V3.066h5.664v1.837H137.6v5.313ZM64.099 22.454h-1.856v-7.142h4.794v1.837h-2.938v5.305ZM69.085 22.154a3.652 3.652 0 0 1-1.366-1.367 3.89 3.89 0 0 1-.495-1.903c0-.669.17-1.326.495-1.903a3.644 3.644 0 0 1 1.366-1.368c.601-.332 1.27-.506 1.95-.506.679 0 1.348.174 1.949.506.564.32 1.036.793 1.367 1.368.323.578.493 1.234.493 1.903s-.17 1.326-.493 1.903a3.674 3.674 0 0 1-1.366 1.367c-.6.332-1.27.505-1.949.505-.68 0-1.349-.173-1.949-.505h-.002Zm2.91-1.546c.292-.175.534-.428.702-.732a2.068 2.068 0 0 0 0-2 1.958 1.958 0 0 0-.7-.732 1.85 1.85 0 0 0-.959-.266c-.336 0-.666.093-.956.27-.291.176-.532.429-.7.733a2.068 2.068 0 0 0 .006 1.997c.168.302.41.553.7.728a1.851 1.851 0 0 0 1.908.002ZM76.014 22.454v-7.142h3.08c.457-.009.91.102 1.317.324.371.207.682.515.898.893a2.702 2.702 0 0 1 0 2.562 2.348 2.348 0 0 1-.898.893c-.407.222-.86.333-1.318.323h-1.222v2.142l-1.857.005Zm2.982-3.877a.746.746 0 0 0 .55-.23.716.716 0 0 0 .23-.535.743.743 0 0 0-.23-.535.77.77 0 0 0-.55-.231h-1.124v1.531h1.124ZM84.128 22.154a3.651 3.651 0 0 1-1.367-1.367 3.889 3.889 0 0 1-.495-1.903c0-.669.17-1.326.495-1.903a3.643 3.643 0 0 1 1.367-1.368c.6-.332 1.269-.506 1.948-.506.68 0 1.348.174 1.949.506a3.66 3.66 0 0 1 1.368 1.368c.323.578.493 1.234.493 1.903s-.17 1.326-.493 1.903a3.668 3.668 0 0 1-1.368 1.367c-.6.332-1.27.505-1.949.505-.68 0-1.348-.173-1.948-.505Zm2.91-1.546c.286-.173.524-.422.69-.72a2.12 2.12 0 0 0 0-2.01 1.944 1.944 0 0 0-.69-.72 1.842 1.842 0 0 0-1.904.002c-.29.175-.53.426-.697.729a2.059 2.059 0 0 0 0 1.99c.167.301.407.553.697.727.289.175.617.267.952.268.334 0 .662-.092.952-.266ZM96.625 20.617h.88v3.369h-1.856v-1.532h-3.615v1.532h-1.856v-3.369h.392c.24-.197.464-.567.658-1.11.21-.627.315-1.287.31-1.95l.04-2.244h5.04l.007 5.304Zm-1.856 0V17.15h-1.391l-.01.407c0 .666-.094 1.328-.281 1.965-.169.54-.36.907-.577 1.096h2.26ZM99.702 22.454H97.75l2.569-7.142h2.09l2.569 7.142h-1.974l-.463-1.378h-2.379l-.459 1.378Zm1.63-5.305-.702 2.346h1.444l-.702-2.346h-.04ZM109.615 22.454h-1.855v-7.142h1.681l2.089 2.747h.02l2.09-2.747h1.641v7.142h-1.856v-4.182h-.038l-1.867 2.444-1.866-2.447h-.039v4.185ZM118.313 22.154a3.676 3.676 0 0 1-1.367-1.367 3.9 3.9 0 0 1-.493-1.903c0-.669.17-1.325.493-1.903a3.675 3.675 0 0 1 1.367-1.368 4.025 4.025 0 0 1 1.949-.506 4.02 4.02 0 0 1 1.948.506c.566.32 1.038.792 1.368 1.368a3.88 3.88 0 0 1 .495 1.903 3.88 3.88 0 0 1-.495 1.903 3.653 3.653 0 0 1-1.368 1.367 4.02 4.02 0 0 1-1.948.505c-.68 0-1.348-.173-1.949-.505Zm2.917-1.546c.287-.176.526-.428.692-.73.166-.302.253-.645.253-.993s-.087-.69-.253-.993a1.965 1.965 0 0 0-.692-.73 1.845 1.845 0 0 0-1.905.002 1.95 1.95 0 0 0-.696.728 2.06 2.06 0 0 0 0 1.99c.167.302.407.553.696.728a1.845 1.845 0 0 0 1.905.001v-.003ZM126.714 22.154a3.645 3.645 0 0 1-1.367-1.367 3.89 3.89 0 0 1-.494-1.903c0-.669.17-1.326.494-1.903a3.635 3.635 0 0 1 1.367-1.368 4.143 4.143 0 0 1 3.764-.102c.478.244.909.577 1.271.984l-1.237 1.205a3.557 3.557 0 0 0-.826-.593 2.27 2.27 0 0 0-1.03-.213 1.845 1.845 0 0 0-1.656.979 2.183 2.183 0 0 0 0 2.02 1.845 1.845 0 0 0 1.656.98c.365.01.726-.065 1.06-.218.307-.155.589-.36.835-.608l1.237 1.204a4.442 4.442 0 0 1-1.29.995 4.14 4.14 0 0 1-3.784-.092ZM134.573 22.454h-1.856v-7.142h1.856v2.747l2.245-2.747h2.149l-2.441 2.96 2.641 4.182h-2.15l-1.716-2.707-.731.866.003 1.841ZM139.94 22.454v-7.142h3.078c.444-.011.884.075 1.293.254.329.143.613.379.821.68.184.277.282.607.279.944.004.338-.095.668-.283.943a1.34 1.34 0 0 1-.704.546 2.099 2.099 0 0 1 1.118.939c.144.257.217.55.212.848.001.354-.101.7-.294.993a2.04 2.04 0 0 1-.855.726c-.424.19-.882.282-1.344.27h-3.321Zm2.938-4.387a.638.638 0 0 0 .464-.162.665.665 0 0 0 0-.888.638.638 0 0 0-.464-.162h-1.083v1.225l1.083-.013Zm.246 2.857a.701.701 0 0 0 .679-.441.745.745 0 0 0-.152-.786.698.698 0 0 0-.526-.205h-1.33v1.43l1.329.002ZM146.88 22.454v-7.142h1.855v2.143h1.124c.459-.01.912.101 1.319.323.373.205.684.515.899.893a2.7 2.7 0 0 1 0 2.562 2.336 2.336 0 0 1-.899.892c-.406.222-.86.333-1.319.323l-2.979.006Zm2.88-1.738a.751.751 0 0 0 .724-.47.777.777 0 0 0-.421-1.007.748.748 0 0 0-.303-.053h-1.026v1.53h1.026Zm5.179 1.738h-1.856v-7.142h1.856v7.142ZM64.099 34.7h-1.856v-7.143h6.103v7.144h-1.855v-5.307h-2.392v5.307ZM71.382 34.399a3.63 3.63 0 0 1-1.369-1.367 3.902 3.902 0 0 1-.493-1.903c0-.669.17-1.326.493-1.903a3.63 3.63 0 0 1 1.369-1.368c.6-.332 1.269-.506 1.948-.506.68 0 1.348.174 1.948.506.565.32 1.037.793 1.367 1.368.323.578.493 1.234.493 1.903s-.17 1.326-.493 1.903a3.65 3.65 0 0 1-1.367 1.367c-.6.332-1.269.505-1.948.505-.68 0-1.348-.173-1.948-.505Zm2.908-1.546c.435-.27.75-.707.88-1.218.129-.51.06-1.054-.19-1.512a1.94 1.94 0 0 0-1.166-.918 1.856 1.856 0 0 0-1.447.199 1.951 1.951 0 0 0-.689.719c-.21.38-.294.823-.24 1.26.056.435.247.84.544 1.15.298.312.685.512 1.103.57.417.057.84-.03 1.205-.25ZM82.418 34.7h-1.856v-7.143h1.856v2.747l2.245-2.747h2.15l-2.447 2.96 2.629 4.184h-2.14l-1.71-2.704-.727.867v1.837ZM88.962 34.399a3.63 3.63 0 0 1-1.367-1.367 3.89 3.89 0 0 1-.495-1.903c0-.669.17-1.326.495-1.903a3.644 3.644 0 0 1 1.367-1.368c.6-.332 1.27-.506 1.949-.506.68 0 1.348.174 1.949.506.564.32 1.036.793 1.367 1.368.323.578.493 1.234.493 1.903s-.17 1.326-.493 1.903a3.65 3.65 0 0 1-1.367 1.367c-.6.332-1.27.505-1.95.505-.679 0-1.348-.173-1.948-.505Zm2.91-1.546c.434-.27.75-.707.879-1.218.129-.51.06-1.054-.19-1.512a1.942 1.942 0 0 0-.69-.72 1.844 1.844 0 0 0-1.906 0c-.29.175-.531.426-.699.73a2.06 2.06 0 0 0 0 1.991c.168.303.409.555.699.73a1.843 1.843 0 0 0 1.907-.001ZM97.748 34.7h-1.856v-7.143h1.856v2.603h2.489v-2.603h1.856v7.144h-1.856v-2.704h-2.49V34.7ZM105.513 34.7h-1.855v-7.143h1.855v2.747l2.245-2.747h2.15l-2.44 2.96 2.628 4.184h-2.141l-1.711-2.704-.731.867v1.837ZM114.548 27.557h2.01l-2.257 5.307c-.554 1.292-1.397 1.939-2.529 1.939-.163 0-.327-.016-.488-.047a1.589 1.589 0 0 1-.362-.107v-1.735c.188.07.386.105.586.102.236.01.47-.05.674-.173.166-.104.298-.257.381-.44l-2.501-4.846h2.1l1.358 2.889h.04l.988-2.889ZM117.381 34.7v-7.143h3.075c.459-.01.913.1 1.319.323.373.206.685.515.9.894a2.697 2.697 0 0 1 0 2.56 2.335 2.335 0 0 1-.9.893c-.406.223-.86.334-1.319.324h-1.22v2.143l-1.855.007Zm2.978-3.876a.745.745 0 0 0 .554-.23.727.727 0 0 0 .229-.535.727.727 0 0 0-.229-.536.772.772 0 0 0-.554-.23h-1.123v1.53h1.123ZM129.346 34.7h-5.324v-7.143h5.227v1.734h-3.37v1.001h2.589v1.633h-2.589v1.04h3.467v1.736ZM132.471 34.7h-1.855v-7.143h1.855v2.603h2.491v-2.603h1.856v7.144h-1.856v-2.704h-2.491V34.7ZM141.556 34.7H139.7v-5.306h-1.905v-1.837h5.664v1.837h-1.903v5.307ZM146.292 34.7h-1.856v-7.143h1.856v2.603h2.493v-2.603h1.855v7.144h-1.855v-2.704h-2.493V34.7ZM153.674 34.399a3.624 3.624 0 0 1-1.368-1.367 3.902 3.902 0 0 1 0-3.806 3.627 3.627 0 0 1 1.368-1.368 4.02 4.02 0 0 1 1.948-.506c.68 0 1.348.174 1.949.506.564.32 1.036.793 1.367 1.368a3.9 3.9 0 0 1 .493 1.903c0 .669-.17 1.326-.493 1.903a3.657 3.657 0 0 1-1.367 1.367 4.025 4.025 0 0 1-1.949.505 4.02 4.02 0 0 1-1.948-.505Zm2.909-1.546c.434-.27.75-.707.879-1.218a2.091 2.091 0 0 0-.19-1.512 1.938 1.938 0 0 0-1.166-.918 1.856 1.856 0 0 0-1.447.199 1.951 1.951 0 0 0-.688.719c-.21.38-.295.823-.24 1.26.055.435.246.84.544 1.15a1.846 1.846 0 0 0 2.308.319ZM162.214 34.7h-1.613v-7.143h1.856v3.929h.039l2.891-3.929H167v7.144h-1.856v-3.93h-.038l-2.892 3.93Zm.294-8.367a1.66 1.66 0 0 1-.479-1.224h1.22a.586.586 0 0 0 .154.427.605.605 0 0 0 .4.153.605.605 0 0 0 .4-.152.57.57 0 0 0 .154-.428h1.211a1.691 1.691 0 0 1-.475 1.224c-.315.323-.746.485-1.294.485a1.75 1.75 0 0 1-1.283-.485h-.008ZM64.099 46.946h-1.856v-7.144h6.103v7.144h-1.855v-5.307h-2.392v5.306ZM71.382 46.644a3.63 3.63 0 0 1-1.369-1.367 3.901 3.901 0 0 1-.493-1.903c0-.669.17-1.326.493-1.903a3.63 3.63 0 0 1 1.369-1.368c.6-.331 1.269-.504 1.948-.504s1.348.173 1.948.504c.565.32 1.037.792 1.367 1.368.323.577.493 1.234.493 1.903s-.17 1.325-.493 1.903a3.65 3.65 0 0 1-1.367 1.367c-.6.331-1.269.505-1.948.505-.68 0-1.348-.174-1.948-.505Zm2.908-1.545a1.99 1.99 0 0 0 .87-1.215c.127-.51.055-1.05-.198-1.504a1.925 1.925 0 0 0-1.154-.923 1.84 1.84 0 0 0-1.441.192 1.944 1.944 0 0 0-.689.72 2.11 2.11 0 0 0 0 2.01c.167.302.408.553.698.726.29.173.62.263.954.26.337.002.669-.09.96-.266ZM78.838 39.802h5.186v7.144H82.17v-5.307h-1.547l-.009.409c-.028 1.306-.14 2.329-.337 3.069-.197.74-.47 1.264-.821 1.572-.249.2-.537.338-.843.406a2.01 2.01 0 0 1-.93-.014 1.579 1.579 0 0 1-.39-.142v-1.78c.14.059.288.093.439.102a.692.692 0 0 0 .3-.065.721.721 0 0 0 .247-.189c.149-.171.27-.491.365-.96.112-.656.166-1.322.162-1.99l.033-2.255ZM87.199 46.946h-1.613v-7.144h1.856v3.929h.038l2.892-3.929h1.611v7.144h-1.856v-3.93h-.038l-2.89 3.93ZM96.722 46.946h-1.855v-5.307h-1.905v-1.837h5.664v1.837h-1.904v5.306ZM101.214 46.946h-1.61v-7.144h1.855v3.929h.038l2.893-3.929h1.612v7.144h-1.856v-3.93h-.038l-2.894 3.93ZM109.419 46.946h-1.856v-7.144h1.856v2.756l2.248-2.756h2.148l-2.441 2.96 2.628 4.184h-2.14l-1.71-2.705-.733.868v1.837ZM120.115 46.946h-5.323v-7.144h5.225v1.735h-3.371v1h2.59v1.633h-2.59v1.04h3.469v1.736ZM42.43 12.457H38.7v27.15h3.73v-27.15ZM36.084 4.037l-14.836 12.56-9.699-8.177-5.934 5.002v5.142l5.934-5.004 9.699 8.177 17.484-14.8v3.518h3.732V0h-9.666v4.037h3.286ZM17.319 44.258h25.145v-2.724H17.32c-.171 0-.34.035-.499.103a1.3 1.3 0 0 0-.422.295 1.414 1.414 0 0 0 0 1.924c.12.126.264.226.422.295.158.068.328.103.498.103"/><path d="M3.765 38.944V4.037h27.183V-.002H0v42.203c.001.332.02.665.057.995l3.708-4.252ZM36.553 46.24a5.195 5.195 0 0 1-2.926.898H29.48a14.324 14.324 0 0 0-8.103 2.518l-.128.104-.127-.104a14.327 14.327 0 0 0-8.104-2.518H8.87a5.224 5.224 0 0 1-2.45-.608L3.76 49.538a8.71 8.71 0 0 0 5.078 1.634h4.152c5.296 0 8.23 3.83 8.23 3.83s2.939-3.83 8.233-3.83H33.6a8.578 8.578 0 0 0 4.604-1.317 9.103 9.103 0 0 0 3.283-3.62l-4.933.005ZM15.726 34.7a.526.526 0 0 0 .759-.069l5.242-6.516a.57.57 0 0 0 .125-.41.578.578 0 0 0-.19-.382l-4.33-3.798a.528.528 0 0 0-.392-.13.52.52 0 0 0-.365.2l-5.24 6.516a.568.568 0 0 0-.123.41.58.58 0 0 0 .19.382l1.095.97L.607 45.481s.434.948.67 1.328c.31.484 1.049 1.433 1.049 1.433L14.78 33.865l.945.836ZM21.957 30.018l-3.635 4.523a.58.58 0 0 0 .078.778.523.523 0 0 0 .746-.056l3.636-4.523a.57.57 0 0 0 .124-.41.581.581 0 0 0-.19-.383.53.53 0 0 0-.393-.13.522.522 0 0 0-.366.199"/><path d="M10.287 27.485a.568.568 0 0 0-.135.415.581.581 0 0 0 .19.39.53.53 0 0 0 .402.129.52.52 0 0 0 .368-.212l3.633-4.523a.58.58 0 0 0-.07-.792.523.523 0 0 0-.758.074l-3.63 4.519ZM11.41 19.973l-4.377 5.442c-.103.128-.18.275-.228.433a1.319 1.319 0 0 0 .081.965c.073.147.174.278.296.385a1.163 1.163 0 0 0 1.338.153c.14-.077.266-.182.368-.309l4.376-5.442a1.303 1.303 0 0 0-.15-1.783 1.163 1.163 0 0 0-.884-.291c-.32.03-.615.19-.821.447M19.947 38.407a1.175 1.175 0 0 0 1.701-.162l4.378-5.44a1.317 1.317 0 0 0 .147-1.398 1.259 1.259 0 0 0-.297-.385 1.163 1.163 0 0 0-1.338-.153 1.22 1.22 0 0 0-.368.308l-4.377 5.448a1.303 1.303 0 0 0 .154 1.777"/></g><defs><clipPath id="a"><path fill="#fff" d="M0 0h167v55H0z"/></clipPath></defs><script/></svg>