<svg xmlns="http://www.w3.org/2000/svg" width="222" height="46" fill="none"><script/><path fill="#DB2B21" d="M70.4.836v17.602h-4.693V4.922h-6.131v13.515h-4.693V.837h15.518-.002Z"/><path fill="#DB2B21" fill-rule="evenodd" d="M76.81 18.308c.961.18 2.095.27 3.397.27 1.306 0 2.44-.09 3.406-.269.965-.179 1.803-.501 2.514-.965.71-.465 1.26-1.124 1.647-1.976.387-.854.58-1.937.58-3.247V7.147c0-1.31-.194-2.395-.583-3.252-.39-.858-.939-1.516-1.648-1.976-.709-.461-1.545-.782-2.51-.96-.964-.18-2.1-.27-3.406-.27-1.303 0-2.436.09-3.397.27-.963.179-1.799.5-2.507.959-.71.461-1.26 1.12-1.651 1.976-.392.858-.588 1.943-.588 3.253v4.974c0 1.31.197 2.393.585 3.245.39.854.94 1.514 1.65 1.976.71.465 1.548.788 2.51.967v-.001Zm5.417-4.001c-.448.123-1.122.185-2.018.185-.891 0-1.557-.062-1.998-.185a1.493 1.493 0 0 1-.968-.795c-.205-.404-.318-1.04-.34-1.907V7.639c.022-.862.136-1.494.343-1.896.206-.4.53-.663.968-.785.438-.122 1.104-.183 1.995-.183.67 0 1.207.029 1.606.089.4.06.725.183.977.37.252.19.437.473.553.85.117.376.175.895.175 1.555v3.966c0 .86-.103 1.493-.31 1.902a1.504 1.504 0 0 1-.981.8h-.002Zm7.678 4.127H94.6V13.93h4.154c1.233 0 2.241-.115 3.02-.347.778-.231 1.383-.598 1.814-1.102.428-.504.732-1.174.907-2.008.175-.836.264-1.9.264-3.19 0-1.158-.11-2.146-.33-2.966-.219-.818-.564-1.482-1.031-1.989-.468-.51-1.083-.886-1.845-1.13-.762-.244-1.696-.367-2.798-.367h-8.849v17.602Zm7.905-8.589h-3.211V4.918h3.21c.607 0 1.06.07 1.358.212a1.108 1.108 0 0 1 .6.707c.104.332.156.813.156 1.447 0 .786-.053 1.353-.16 1.699-.104.346-.297.577-.577.69-.28.115-.74.172-1.376.172Z" clip-rule="evenodd"/><path fill="#DB2B21" d="M113.867 4.917v13.518h-4.694V4.917h-4.509V.832h13.94v4.085h-4.737Z"/><path fill="#DB2B21" fill-rule="evenodd" d="M123.485 15.41h6.314l.917 3.024h4.79L130.153.832h-7.139l-5.276 17.603h4.881l.866-3.025Zm3.191-11.06 2.183 7.633h-4.366l2.136-7.633h.047Z" clip-rule="evenodd"/><path fill="#DB2B21" d="M138.037.832h14.268v17.602h-4.717V4.919h-5.094v7.39c0 1.303-.189 2.422-.573 3.358-.382.937-.964 1.656-1.746 2.158-.784.502-1.754.753-2.912.753a12.904 12.904 0 0 1-2.395-.212V14.56c.329.113.807.167 1.433.167.641 0 1.091-.172 1.35-.521.257-.348.386-.957.386-1.828V.832Z"/><path fill="#B4B1B1" d="M54.915 25.616h12.867v15.936h-1.769V27.21h-9.329v14.34h-1.768V25.617h-.001Z"/><path fill="#B4B1B1" fill-rule="evenodd" d="M71.064 26.957c-.487.576-.831 1.384-1.034 2.423-.203 1.042-.305 2.44-.305 4.203 0 1.751.1 3.145.302 4.182.202 1.037.546 1.844 1.034 2.42.49.575 1.154.975 1.995 1.2.84.225 1.958.338 3.356.338 1.405 0 2.534-.113 3.384-.339.85-.225 1.515-.623 1.999-1.196.483-.572.826-1.38 1.026-2.423.202-1.044.303-2.438.303-4.182 0-1.754-.1-3.153-.297-4.2-.198-1.045-.539-1.854-1.024-2.427-.486-.576-1.147-.973-1.984-1.198-.836-.224-1.96-.335-3.366-.335-1.418 0-2.548.111-3.393.335-.843.225-1.51.624-1.996 1.2Zm1.285 12.027c-.327-.451-.549-1.088-.663-1.91-.114-.822-.17-1.987-.17-3.49 0-1.54.052-2.718.16-3.533.107-.814.325-1.448.652-1.9.328-.452.802-.761 1.424-.926.624-.164 1.516-.248 2.68-.248 1.155 0 2.043.084 2.667.248.62.165 1.094.472 1.42.923.326.451.544 1.085.65 1.9.107.818.162 1.996.162 3.535 0 1.526-.056 2.695-.166 3.508-.111.813-.329 1.446-.654 1.895-.323.452-.8.762-1.428.929-.63.168-1.512.252-2.65.252-1.133 0-2.016-.084-2.646-.252-.631-.169-1.11-.477-1.438-.931Z" clip-rule="evenodd"/><path fill="#B4B1B1" d="M95.283 36.225h1.727c0 1.42-.182 2.517-.547 3.3-.363.782-.999 1.343-1.903 1.684-.905.343-2.196.514-3.874.514-1.273 0-2.305-.112-3.096-.336-.79-.224-1.425-.62-1.906-1.188-.48-.57-.828-1.38-1.045-2.435-.217-1.053-.325-2.434-.325-4.14 0-1.697.107-3.078.319-4.14.215-1.061.562-1.886 1.046-2.475.484-.59 1.123-1.001 1.92-1.235.795-.235 1.824-.351 3.087-.351 1.257 0 2.278.102 3.063.305.783.205 1.386.52 1.81.941.423.425.721.949.895 1.576.172.625.288 1.432.342 2.42l-1.722-.02c-.11-1.051-.267-1.816-.47-2.296-.202-.48-.596-.83-1.178-1.047-.584-.216-1.496-.325-2.742-.325-.941 0-1.702.093-2.28.279a2.614 2.614 0 0 0-1.37.99c-.336.471-.575 1.136-.717 1.992-.143.857-.215 1.986-.215 3.386 0 1.42.07 2.544.209 3.378.139.836.376 1.483.713 1.949.336.464.792.782 1.366.956.577.174 1.34.26 2.294.26.965 0 1.743-.06 2.335-.18.59-.119 1.05-.323 1.38-.61.33-.288.559-.68.689-1.18.13-.496.195-1.153.195-1.972Zm7.207 5.325V27.212h-5.22v-1.618h12.185l-.021 1.618h-5.154V41.55H102.49Z"/><path fill="#B4B1B1" fill-rule="evenodd" d="m115.657 25.596-5.82 15.955h1.92l1.279-3.282h8.051l1.196 3.283h1.893l-5.945-15.956h-2.574Zm1.321 1.32 3.537 9.8h-7.053l3.516-9.8Zm8.625 14.636h8.135c1.47 0 2.516-.386 3.138-1.158.623-.772.934-1.914.934-3.424 0-.756-.063-1.37-.187-1.844a2.366 2.366 0 0 0-.72-1.187c-.356-.317-.877-.57-1.563-.761.576-.204 1.008-.473 1.3-.806.292-.332.481-.72.569-1.157a8.656 8.656 0 0 0 .134-1.678c0-1.415-.326-2.427-.979-3.033-.651-.606-1.676-.91-3.073-.91h-7.688v15.958Zm1.769-14.38v5.387h5.072c.799 0 1.423-.081 1.868-.244a1.614 1.614 0 0 0 .955-.864c.191-.412.287-1 .287-1.764 0-.973-.174-1.636-.519-1.99-.345-.35-.996-.526-1.952-.526h-5.711Zm0 6.942v5.841h4.92c.763 0 1.365-.032 1.81-.093.444-.063.809-.192 1.095-.386.286-.194.495-.481.627-.863s.197-.9.197-1.556c0-.866-.085-1.506-.258-1.919a1.372 1.372 0 0 0-.866-.822c-.404-.134-1.025-.202-1.86-.202h-5.665Z" clip-rule="evenodd"/><path fill="#B4B1B1" d="M149.74 25.594h1.768v14.361h8.114v-14.36h1.768v14.36h1.129v5.263h-1.576v-3.666h-21.11V25.594h1.768v14.361h8.139v-14.36Zm14.528 0h1.769V40.34l9.071-14.746h2.834v15.958h-1.768V26.958l-9.097 14.594h-2.809V25.594Zm18.041 0v6.965h1.597l6.496-6.963h2.387l-7.327 7.71 8.18 8.246h-2.449l-7.308-7.418h-1.576v7.418h-1.768V25.594h1.768Z"/><path fill="#B4B1B1" fill-rule="evenodd" d="M195.601 26.957c-.487.576-.832 1.384-1.035 2.423-.203 1.042-.304 2.44-.304 4.203 0 1.751.101 3.145.302 4.182.201 1.037.546 1.844 1.034 2.42.489.575 1.154.975 1.995 1.2.841.225 1.959.338 3.355.338 1.407 0 2.536-.113 3.385-.339.85-.225 1.516-.623 1.999-1.196.484-.572.826-1.38 1.026-2.423.202-1.044.302-2.438.302-4.182 0-1.754-.099-3.153-.297-4.2-.197-1.045-.538-1.854-1.024-2.427-.485-.576-1.145-.973-1.982-1.198-.839-.224-1.961-.335-3.366-.335-1.418 0-2.549.111-3.393.335-.845.225-1.511.624-1.997 1.2Zm1.285 12.027c-.328-.451-.549-1.088-.663-1.91-.116-.822-.171-1.987-.171-3.49 0-1.54.053-2.718.16-3.533.107-.814.325-1.448.653-1.9.327-.452.802-.761 1.424-.926.623-.164 1.516-.248 2.68-.248 1.154 0 2.043.084 2.665.248.622.165 1.095.472 1.422.923.326.451.542 1.085.65 1.9.107.818.161 1.996.161 3.535 0 1.526-.055 2.695-.167 3.508-.11.813-.329 1.446-.651 1.895-.325.452-.801.762-1.431.929-.629.168-1.512.252-2.649.252-1.134 0-2.014-.084-2.647-.252-.63-.169-1.109-.477-1.436-.931Zm12.583 2.568h8.134c1.47 0 2.516-.386 3.138-1.158.624-.772.934-1.914.934-3.425 0-.756-.061-1.37-.187-1.843a2.352 2.352 0 0 0-.72-1.187c-.355-.317-.877-.57-1.562-.761.575-.205 1.009-.474 1.299-.807.292-.332.482-.719.569-1.156a8.656 8.656 0 0 0 .134-1.678c0-1.415-.326-2.427-.979-3.033-.651-.606-1.676-.91-3.072-.91h-7.688v15.958Zm1.767-14.381v5.387h5.072c.799 0 1.423-.08 1.868-.244a1.612 1.612 0 0 0 .955-.863c.191-.413.287-1 .287-1.764 0-.974-.174-1.637-.519-1.99-.345-.351-.996-.526-1.952-.526h-5.711Zm0 6.943v5.84h4.92c.763 0 1.365-.031 1.81-.092.444-.064.809-.192 1.095-.386.287-.195.495-.481.626-.864.133-.381.198-.9.198-1.555 0-.866-.085-1.507-.256-1.92a1.375 1.375 0 0 0-.868-.822c-.406-.133-1.025-.201-1.86-.201h-5.665ZM33.137 7.939H0v33.137h33.137V7.939Zm-7.249 7.248H7.248v18.64h18.64v-18.64Z" clip-rule="evenodd"/><path fill="#DB2B21" fill-rule="evenodd" d="M7.248.69h33.137v33.137H33.14V7.938H14.498v18.64H25.89v7.249H7.248V.69Z" clip-rule="evenodd"/><script/></svg>